:SAMPLES-PER-SECOND 30
:FULLY-SPECIFIED
:DEGREES
534
root  -54.8618 5.65406 -21.1989 155.878 -59.7681 -161.762
RightUpLeg  -85.1041 -5.0225 9.14057
RightLeg  161.39 13.1852 -5.07809
RightFoot  -56.3914 6.6338 12.9636
RightToes  9.34204 0.020666 0.0866176
Spine  25.6587 2.34506 3.96937
Spine1  40.4988 2.72793 7.23216
HEad  -106.94 64.2929 -37.2681
LeftShoulder1  -1.94126e-019 -3.10601e-018 -2.51263e-017
LeftArm  46.2752 -64.9413 -133.566
LeftForeArm  56.9338 -3.6124 -0.587691
LeftHand  -0.581262 -4.22296 7.29553
RightShoulder  -4.96962e-017 0 -2.36833e-017
RightArm  11.1157 71.7276 104.89
RightForeArm  78.956 1.51003 0.178952
RightHand  -0.203086 -3.53004 -11.9546
LeftUpLeg  -85.0091 11.48 29.2696
LeftLeg  165.268 -4.25348 1.41721
LeftFoot  -54.043 -7.04626 -13.6055
LeftToes  12.5347 2.03064e-006 1.83538e-008
535
root  -54.8558 5.65176 -21.1827 155.836 -59.698 -161.808
RightUpLeg  -85.1366 -5.02638 9.02469
RightLeg  161.377 13.0527 -5.02906
RightFoot  -56.254 6.55358 12.8495
RightToes  9.08536 0.0203947 0.085384
Spine  25.655 2.33272 3.97185
Spine1  40.4912 2.71591 7.20129
HEad  -105.289 63.0721 -35.1787
LeftShoulder1  -1.94126e-019 -3.10601e-018 -2.51263e-017
LeftArm  46.0459 -64.9788 -133.235
LeftForeArm  56.8392 -3.69057 -0.601493
LeftHand  -0.583966 -4.26683 7.29742
RightShoulder  -4.96962e-017 0 -2.36833e-017
RightArm  11.2891 71.7318 105.093
RightForeArm  79.0713 1.56683 0.188554
RightHand  -0.205201 -3.48929 -11.8324
LeftUpLeg  -84.9662 11.4866 29.1796
LeftLeg  165.28 -4.31559 1.43685
LeftFoot  -54.0844 -7.0759 -13.6508
LeftToes  12.8492 2.03064e-006 1.83538e-008
536
root  -54.8879 5.64967 -21.1704 155.277 -59.8276 -161.76
RightUpLeg  -84.3752 -5.36796 8.60792
RightLeg  161.442 12.7689 -4.89963
RightFoot  -56.4668 6.49886 12.6932
RightToes  8.74351 0.0201243 0.0840667
Spine  25.92 2.2391 4.02092
Spine1  40.8771 2.47566 7.29279
HEad  -102.287 59.7744 -31.2711
LeftShoulder1  -1.94126e-019 -3.10601e-018 -2.51263e-017
LeftArm  46.3494 -65.0316 -133.377
LeftForeArm  56.6781 -3.83187 -0.627205
LeftHand  -0.564869 -4.10922 7.17614
RightShoulder  -4.96962e-017 0 -2.36833e-017
RightArm  11.0904 72.0268 105.227
RightForeArm  79.3131 1.45074 0.167492
RightHand  -0.204822 -3.46853 -11.9338
LeftUpLeg  -84.4289 10.9682 28.922
LeftLeg  165.334 -4.56633 1.51519
LeftFoot  -54.4271 -7.27698 -13.9371
LeftToes  13.5737 2.03064e-006 1.83538e-008
537
root  -54.887 5.64523 -21.1602 155.229 -59.8347 -161.802
RightUpLeg  -84.338 -5.37292 8.51745
RightLeg  161.453 12.7357 -4.88371
RightFoot  -56.4104 6.48414 12.6801
RightToes  8.59917 0.0198551 0.0826625
Spine  25.9233 2.20108 4.03508
Spine1  40.8965 2.48269 7.19649
HEad  -97.9378 54.6613 -25.3955
LeftShoulder1  -1.94126e-019 -3.10601e-018 -2.51263e-017
LeftArm  46.1513 -65.0797 -133.268
LeftForeArm  56.7119 -3.78047 -0.617868
LeftHand  -0.572549 -4.1818 7.21903
RightShoulder  -4.96962e-017 0 -2.36833e-017
RightArm  11.381 72.0464 105.568
RightForeArm  79.4813 1.39695 0.157663
RightHand  -0.205766 -3.51245 -12.0142
LeftUpLeg  -84.3857 10.9282 28.8736
LeftLeg  165.345 -4.57376 1.51662
LeftFoot  -54.4864 -7.2866 -13.9379
LeftToes  13.8816 2.03064e-006 1.83538e-008
538
root  -54.8896 5.64004 -21.1519 155.111 -59.8843 -161.805
RightUpLeg  -84.2011 -5.42644 8.40087
RightLeg  161.466 12.6996 -4.866
RightFoot  -56.4353 6.48462 12.6747
RightToes  8.47067 0.0195875 0.0814792
Spine  25.9448 2.15961 4.05847
Spine1  40.9314 2.44246 7.16984
HEad  -93.1852 46.6874 -18.3886
LeftShoulder1  -1.94126e-019 -3.10601e-018 -2.51263e-017
LeftArm  46.1614 -65.086 -133.373
LeftForeArm  56.7034 -3.73347 -0.609816
LeftHand  -0.566811 -4.13654 7.18083
RightShoulder  -4.96962e-017 0 -2.36833e-017
RightArm  11.4002 72.1051 105.681
RightForeArm  79.6772 1.34808 0.14856
RightHand  -0.206237 -3.50145 -11.9743
LeftUpLeg  -84.3391 10.801 28.8008
LeftLeg  165.36 -4.61799 1.52988
LeftFoot  -54.5026 -7.30398 -13.9664
LeftToes  13.8641 2.03064e-006 1.83538e-008
539
root  -54.9007 5.63499 -21.1431 154.933 -59.9611 -161.79
RightUpLeg  -83.9612 -5.51518 8.22247
RightLeg  161.504 12.622 -4.82583
RightFoot  -56.5363 6.48342 12.6469
RightToes  8.49287 0.0193217 0.0805206
Spine  25.9688 2.10714 4.07457
Spine1  40.9542 2.35923 7.16026
HEad  -89.5704 36.1947 -11.8309
LeftShoulder1  -1.94126e-019 -3.10601e-018 -2.51263e-017
LeftArm  46.1722 -65.06 -133.476
LeftForeArm  56.7719 -3.67063 -0.598321
LeftHand  -0.577171 -4.19675 7.2645
RightShoulder  -4.96962e-017 0 -2.36833e-017
RightArm  11.2862 72.1086 105.683
RightForeArm  79.8234 1.32912 0.144983
RightHand  -0.197762 -3.57143 -11.8744
LeftUpLeg  -84.2353 10.6111 28.646
LeftLeg  165.407 -4.67469 1.54432
LeftFoot  -54.5865 -7.33942 -14.0092
LeftToes  14.0437 2.03064e-006 1.83538e-008
540
root  -54.9128 5.63313 -21.1317 154.727 -60.0703 -161.759
RightUpLeg  -83.7096 -5.67555 8.01102
RightLeg  161.531 12.5186 -4.77815
RightFoot  -56.5721 6.46382 12.6015
RightToes  8.55604 0.0190581 0.0795747
Spine  26.0243 2.03468 4.07323
Spine1  41.0396 2.26575 7.09948
HEad  -87.4452 24.2329 -5.94817
LeftShoulder1  -1.94126e-019 -3.10601e-018 -2.51263e-017
LeftArm  46.1739 -65.1176 -133.513
LeftForeArm  56.7216 -3.66161 -0.59641
LeftHand  -0.589552 -4.26597 7.36501
RightShoulder  -4.96962e-017 0 -2.36833e-017
RightArm  11.3481 72.1356 105.857
RightForeArm  79.8499 1.35955 0.15037
RightHand  -0.190057 -3.65452 -11.9086
LeftUpLeg  -84.1685 10.3746 28.4241
LeftLeg  165.411 -4.87909 1.61118
LeftFoot  -54.6413 -7.42189 -14.1506
LeftToes  14.3277 2.03064e-006 1.83538e-008
541
root  -54.9206 5.6347 -21.1194 154.556 -60.1799 -161.744
RightUpLeg  -83.4854 -5.82268 7.79522
RightLeg  161.55 12.3994 -4.7262
RightFoot  -56.6077 6.43439 12.538
RightToes  8.35145 0.018797 0.0784293
Spine  26.09 1.96924 4.06154
Spine1  41.1454 2.19942 7.008
HEad  -86.9435 11.1413 -0.396182
LeftShoulder1  -1.94126e-019 -3.10601e-018 -2.51263e-017
LeftArm  46.2059 -65.2037 -133.547
LeftForeArm  56.7025 -3.67868 -0.599603
LeftHand  -0.584495 -4.20569 7.34665
RightShoulder  -4.96962e-017 0 -2.36833e-017
RightArm  11.3973 72.2152 106.036
RightForeArm  80.004 1.34049 0.146413
RightHand  -0.201535 -3.54188 -11.9302
LeftUpLeg  -84.0695 10.1619 28.2192
LeftLeg  165.421 -4.9768 1.64228
LeftFoot  -54.7385 -7.46998 -14.213
LeftToes  14.4884 2.03064e-006 1.83538e-008
542
root  -54.9302 5.6366 -21.1046 154.416 -60.2628 -161.76
RightUpLeg  -83.2677 -5.9751 7.53472
RightLeg  161.566 12.2361 -4.65793
RightFoot  -56.6305 6.39068 12.4512
RightToes  8.12703 0.0185388 0.0768724
Spine  26.1695 1.90704 4.04456
Spine1  41.2785 2.14267 6.90817
HEad  -87.8933 -2.05652 4.6785
LeftShoulder1  -1.94126e-019 -3.10601e-018 -2.51263e-017
LeftArm  46.2709 -65.3175 -133.597
LeftForeArm  56.6833 -3.64447 -0.593522
LeftHand  -0.58976 -4.20961 7.38091
RightShoulder  -4.96962e-017 0 -2.36833e-017
RightArm  11.577 72.3252 106.376
RightForeArm  80.2304 1.29648 0.138067
RightHand  -0.202347 -3.53466 -11.9364
LeftUpLeg  -83.9902 9.96934 27.9644
LeftLeg  165.423 -5.14177 1.69628
LeftFoot  -54.7662 -7.52497 -14.3096
LeftToes  14.5266 2.03064e-006 1.83538e-008
543
root  -54.9398 5.64036 -21.0886 154.309 -60.3228 -161.791
RightUpLeg  -83.0768 -6.10856 7.27124
RightLeg  161.574 12.067 -4.58907
RightFoot  -56.6265 6.33815 12.3548
RightToes  7.77912 0.0182838 0.0746917
Spine  26.2505 1.84768 4.03017
Spine1  41.4116 2.08549 6.81621
HEad  -90.3436 -14.6539 9.73903
LeftShoulder1  -1.94126e-019 -3.10601e-018 -2.51263e-017
LeftArm  46.3554 -65.4077 -133.602
LeftForeArm  56.6457 -3.61693 -0.588593
LeftHand  -0.592085 -4.20333 7.43992
RightShoulder  -4.96962e-017 0 -2.36833e-017
RightArm  11.7724 72.4179 106.69
RightForeArm  80.4936 1.27178 0.133077
RightHand  -0.198413 -3.57923 -11.9689
LeftUpLeg  -83.9177 9.78282 27.6856
LeftLeg  165.407 -5.36865 1.77241
LeftFoot  -54.8133 -7.60968 -14.4566
LeftToes  14.671 2.03064e-006 1.83538e-008
